<svg xmlns="http://www.w3.org/2000/svg" width="54" height="54" viewBox="0 0 54 54" fill="none">
    <path
        d="M27.0884 0.216467C25.6242 -0.320412 21.4951 -0.193513 16.6925 4.60911C20.4995 2.73491 22.0369 3.82819 22.3298 4.60911C25.4046 11.0516 11.4946 6.87864 4.75918 13.614C-8.19908 31.6971 8.2733 38.7253 18.8888 31.6971C29.5044 24.6688 34.7756 34.5523 39.461 35.3576C43.6341 36.0897 52.2436 34.5816 53.2979 22.6921C54.3521 10.8027 36.2642 2.75444 27.0884 0.216467Z"
        fill="#F192FF" />
    <path opacity="0.02" fill-rule="evenodd" clip-rule="evenodd"
        d="M53.3419 21.6826C51.9494 11.9909 36.6858 5.44456 28.654 3.27161C27.6441 2.90945 25.292 2.87432 22.3301 4.60993C22.6757 5.33437 22.8066 5.92456 22.757 6.41111C23.5948 6.53992 24.023 6.96995 24.1605 7.32863C25.6811 10.445 22.8027 10.872 18.8022 11.4656C15.1642 12.0053 10.5984 12.6827 7.56924 15.6455C-0.119487 26.1401 3.16469 32.6033 9.15461 34.3472C12.327 34.57 15.8481 33.7102 18.8888 31.6971C24.7897 27.7902 29.0392 29.1091 32.4547 31.1895C33.8156 31.8533 35.0377 32.7094 36.1689 33.5018C37.1063 34.1585 37.9814 34.7715 38.8213 35.195C39.036 35.2662 39.2491 35.3212 39.461 35.3576C43.634 36.0897 52.2436 34.5816 53.2978 22.6921C53.3279 22.3525 53.3424 22.016 53.3419 21.6826Z"
        fill="black" />
    <path fill-rule="evenodd" clip-rule="evenodd"
        d="M26.1177 53.8799H28.2598V33.365C27.3982 33.1785 26.4876 33.0964 25.5205 33.1587L26.1177 53.8799ZM22.7533 33.7116C21.5478 34.111 20.2631 34.7374 18.8889 35.6473C18.6769 35.7876 18.4626 35.9223 18.2463 36.0514L21.4928 53.8799H23.3345L22.7533 33.7116ZM18.6651 53.8799L15.647 37.3059C13.9953 37.9296 12.2932 38.2656 10.6473 38.3229L17.9371 53.8799H18.6651ZM31.0418 34.3586V53.8799H32.4683L35.5156 37.2326C35.361 37.1226 35.2048 37.0107 35.0469 36.8977C33.8291 36.0255 32.5118 35.0821 31.0418 34.3586ZM38.0516 38.8288L35.2965 53.8799H36.6059L42.7473 39.3772C41.5215 39.5219 40.383 39.4695 39.4611 39.3078C38.9985 39.2283 38.5302 39.0603 38.0516 38.8288Z"
        fill="#F192FF" />
    <path opacity="0.025" fill-rule="evenodd" clip-rule="evenodd"
        d="M28.2597 34.8335C27.5417 34.7138 26.7901 34.6684 26.0009 34.7193L26.5531 53.8799H28.2597V34.8335ZM22.8025 35.4235C21.723 35.8237 20.581 36.4056 19.3693 37.2078C19.1574 37.3482 18.9431 37.4829 18.7267 37.612L21.6891 53.8799H23.3344L22.8025 35.4235ZM15.9435 38.9347L18.665 53.8799H17.937L11.3735 39.8729C12.8815 39.7952 14.4319 39.4848 15.9435 38.9347ZM35.3185 38.3087C34.1592 37.4794 32.9086 36.6015 31.5223 35.9191V53.8799H32.4682L35.3185 38.3087ZM42.0517 41.0197C41.2768 41.0362 40.5604 40.9769 39.9415 40.8684C39.4789 40.7889 39.0106 40.6209 38.5321 40.3894L36.0626 53.8799H36.6058L42.0517 41.0197Z"
        fill="black" />
</svg>