<svg xmlns="http://www.w3.org/2000/svg" width="54" height="50" viewBox="0 0 54 50" fill="none">
  <g clip-path="url(#clip0_1_153)">
    <path d="M43.875 17.1875H28.6875V15.4297C30.1359 15.0813 31.4186 14.298 32.3347 13.2023C33.2508 12.1067 33.7486 10.7606 33.75 9.37501C33.75 3.90626 28.1728 0.408211 27.9366 0.261727C27.6593 0.0904158 27.3334 -0.00100708 27 -0.00100708C26.6666 -0.00100708 26.3407 0.0904158 26.0634 0.261727C25.8272 0.408211 20.25 3.90626 20.25 9.37501C20.2514 10.7606 20.7492 12.1067 21.6653 13.2023C22.5814 14.298 23.8641 15.0813 25.3125 15.4297V17.1875H10.125C8.78234 17.1875 7.49467 17.6814 6.54527 18.5604C5.59587 19.4395 5.0625 20.6318 5.0625 21.875V26.4317C5.06423 28.1362 5.65563 29.7954 6.75 31.166V39.0625C6.75 40.3057 7.28337 41.498 8.23277 42.3771C9.18218 43.2561 10.4698 43.75 11.8125 43.75H42.1875C43.5302 43.75 44.8178 43.2561 45.7672 42.3771C46.7166 41.498 47.25 40.3057 47.25 39.0625V31.166C48.3444 29.7954 48.9358 28.1362 48.9375 26.4317V21.875C48.9375 20.6318 48.4041 19.4395 47.4547 18.5604C46.5053 17.6814 45.2177 17.1875 43.875 17.1875ZM23.625 9.37501C23.625 6.72462 25.7344 4.59766 27 3.55665C28.2656 4.59766 30.375 6.72462 30.375 9.37501C30.375 10.2038 30.0194 10.9987 29.3865 11.5847C28.7535 12.1708 27.8951 12.5 27 12.5C26.1049 12.5 25.2465 12.1708 24.6135 11.5847C23.9806 10.9987 23.625 10.2038 23.625 9.37501ZM45.5625 26.4317C45.5625 29.0195 43.3561 31.1797 40.6434 31.2481C39.9668 31.2658 39.2932 31.1578 38.6625 30.9303C38.0318 30.7028 37.4567 30.3605 36.9714 29.9237C36.486 29.4868 36.1002 28.9643 35.8367 28.387C35.5733 27.8096 35.4375 27.1893 35.4375 26.5625C35.4375 26.1481 35.2597 25.7507 34.9432 25.4577C34.6268 25.1646 34.1976 25 33.75 25C33.3024 25 32.8732 25.1646 32.5568 25.4577C32.2403 25.7507 32.0625 26.1481 32.0625 26.5625C32.0625 27.8057 31.5291 28.998 30.5797 29.8771C29.6303 30.7561 28.3427 31.25 27 31.25C25.6573 31.25 24.3697 30.7561 23.4203 29.8771C22.4709 28.998 21.9375 27.8057 21.9375 26.5625C21.9375 26.1481 21.7597 25.7507 21.4432 25.4577C21.1268 25.1646 20.6976 25 20.25 25C19.8024 25 19.3732 25.1646 19.0568 25.4577C18.7403 25.7507 18.5625 26.1481 18.5625 26.5625C18.5628 27.1894 18.4272 27.81 18.1639 28.3876C17.9006 28.9651 17.5148 29.4879 17.0294 29.9249C16.544 30.362 15.9688 30.7044 15.338 30.932C14.7071 31.1597 14.0334 31.2678 13.3566 31.25C10.6439 31.1797 8.4375 29.0195 8.4375 26.4317V21.875C8.4375 21.4606 8.61529 21.0632 8.93176 20.7702C9.24823 20.4771 9.67745 20.3125 10.125 20.3125H43.875C44.3226 20.3125 44.7518 20.4771 45.0682 20.7702C45.3847 21.0632 45.5625 21.4606 45.5625 21.875V26.4317Z" fill="#EC8FFA"/>
  </g>
  <defs>
    <clipPath id="clip0_1_153">
      <rect width="54" height="50" fill="white"/>
    </clipPath>
  </defs>
</svg>