<svg xmlns="http://www.w3.org/2000/svg" width="26" height="23" viewBox="0 0 26 23" fill="none">
  <path d="M25.438 7.64383C25.3522 7.54584 25.2466 7.46725 25.128 7.41331C25.0095 7.35938 24.8808 7.33132 24.7505 7.33101H19.6664L13.5212 0.310354C13.4351 0.212813 13.3293 0.134693 13.2108 0.0811834C13.0923 0.0276738 12.9637 0 12.8336 0C12.7036 0 12.575 0.0276738 12.4565 0.0811834C12.3379 0.134693 12.2321 0.212813 12.1461 0.310354L6.00091 7.33101H0.916746C0.786101 7.331 0.656964 7.35892 0.537989 7.41289C0.419013 7.46686 0.312949 7.54564 0.226903 7.64394C0.140858 7.74225 0.0768197 7.85781 0.0390803 7.98289C0.0013408 8.10796 -0.00922794 8.23966 0.00808246 8.36915L1.73489 21.3242C1.79512 21.7639 2.01221 22.167 2.34617 22.4592C2.68012 22.7515 3.10843 22.9132 3.55221 22.9146H22.1151C22.5588 22.9132 22.9872 22.7515 23.3211 22.4592C23.6551 22.167 23.8722 21.7639 23.9324 21.3242L25.6592 8.36915C25.6762 8.23947 25.6653 8.10766 25.6271 7.98255C25.589 7.85745 25.5245 7.74195 25.438 7.64383ZM7.51687 19.2479C7.48596 19.2496 7.45497 19.2496 7.42406 19.2479C7.19602 19.249 6.97574 19.1651 6.80623 19.0126C6.63673 18.86 6.53017 18.6498 6.50737 18.4229L5.86569 12.0061C5.84138 11.7642 5.91416 11.5225 6.06802 11.3343C6.22188 11.1461 6.44422 11.0266 6.68613 11.0023C6.92803 10.978 7.16968 11.0508 7.35793 11.2047C7.54617 11.3585 7.66558 11.5809 7.6899 11.8228L8.33157 18.2395C8.35725 18.4813 8.28584 18.7233 8.13305 18.9124C7.98027 19.1015 7.75862 19.2222 7.51687 19.2479ZM13.7503 18.3312C13.7503 18.5743 13.6537 18.8075 13.4818 18.9794C13.3099 19.1513 13.0768 19.2479 12.8336 19.2479C12.5905 19.2479 12.3574 19.1513 12.1854 18.9794C12.0135 18.8075 11.917 18.5743 11.917 18.3312V11.9144C11.917 11.6713 12.0135 11.4381 12.1854 11.2662C12.3574 11.0943 12.5905 10.9977 12.8336 10.9977C13.0768 10.9977 13.3099 11.0943 13.4818 11.2662C13.6537 11.4381 13.7503 11.6713 13.7503 11.9144V18.3312ZM8.43699 7.33101L12.8336 2.30643L17.2303 7.33101H8.43699ZM19.7959 12.0061L19.1542 18.4229C19.1315 18.6488 19.0257 18.8583 18.8574 19.0107C18.6891 19.1631 18.4703 19.2476 18.2432 19.2479C18.2123 19.2496 18.1813 19.2496 18.1504 19.2479C18.0306 19.2359 17.9144 19.2004 17.8083 19.1434C17.7023 19.0864 17.6085 19.0091 17.5323 18.9159C17.4561 18.8227 17.399 18.7154 17.3643 18.6002C17.3296 18.4849 17.3179 18.3639 17.33 18.2441L17.9717 11.8273C17.996 11.5854 18.1154 11.3631 18.3036 11.2092C18.4919 11.0554 18.7335 10.9826 18.9754 11.0069C19.2173 11.0312 19.4397 11.1506 19.5935 11.3389C19.7474 11.5271 19.8202 11.7688 19.7959 12.0107V12.0061Z" fill="#EC8FFA"/>
</svg>