<svg xmlns="http://www.w3.org/2000/svg" width="56" height="52" viewBox="0 0 56 52" fill="none">
  <path d="M49 24.375C46.6794 24.375 44.4538 23.519 42.8128 21.9952C41.1719 20.4715 40.25 18.4049 40.25 16.25C40.25 15.819 40.0656 15.4057 39.7374 15.101C39.4093 14.7962 38.9641 14.625 38.5 14.625C36.1794 14.625 33.9538 13.769 32.3128 12.2452C30.6719 10.7215 29.75 8.65488 29.75 6.5C29.75 6.06902 29.5656 5.6557 29.2374 5.35095C28.9093 5.0462 28.4641 4.875 28 4.875C23.5005 4.875 19.102 6.11396 15.3608 8.4352C11.6196 10.7564 8.70364 14.0557 6.98175 17.9158C5.25986 21.7759 4.80933 26.0234 5.68715 30.1213C6.56496 34.2191 8.73169 37.9832 11.9133 40.9376C15.095 43.892 19.1486 45.904 23.5617 46.7191C27.9748 47.5342 32.549 47.1159 36.7061 45.517C40.8631 43.9181 44.4161 41.2104 46.9159 37.7364C49.4157 34.2624 50.75 30.1781 50.75 26C50.75 25.569 50.5656 25.1557 50.2374 24.851C49.9093 24.5462 49.4641 24.375 49 24.375ZM16.5178 20.213C16.8853 19.8729 17.353 19.6416 17.862 19.5483C18.3709 19.4549 18.8983 19.5036 19.3774 19.6884C19.8565 19.8731 20.266 20.1855 20.554 20.5862C20.842 20.9869 20.9958 21.4578 20.9958 21.9395C20.9958 22.4213 20.842 22.8922 20.554 23.2929C20.266 23.6935 19.8565 24.0059 19.3774 24.1907C18.8983 24.3754 18.3709 24.4242 17.862 24.3308C17.353 24.2374 16.8853 24.0061 16.5178 23.6661C16.2731 23.4396 16.0789 23.1706 15.9464 22.8743C15.814 22.578 15.7458 22.2603 15.7458 21.9395C15.7458 21.6187 15.814 21.3011 15.9464 21.0048C16.0789 20.7085 16.2731 20.4394 16.5178 20.213ZM21.9866 35.0411C21.6191 35.3811 21.1514 35.6124 20.6424 35.7058C20.1335 35.7992 19.6061 35.7504 19.127 35.5657C18.6479 35.3809 18.2384 35.0685 17.9504 34.6679C17.6624 34.2672 17.5086 33.7963 17.5086 33.3145C17.5086 32.8328 17.6624 32.3619 17.9504 31.9612C18.2384 31.5605 18.6479 31.2481 19.127 31.0634C19.6061 30.8786 20.1335 30.8299 20.6424 30.9233C21.1514 31.0166 21.6191 31.2479 21.9866 31.588C22.2303 31.8146 22.4236 32.0837 22.5554 32.3797C22.6871 32.6758 22.7547 32.993 22.7543 33.3133C22.7539 33.6337 22.6855 33.9508 22.553 34.2465C22.4205 34.5423 22.2265 34.8109 21.9822 35.037L21.9866 35.0411ZM27.0178 26.9161C26.6516 26.5749 26.4025 26.1405 26.302 25.6679C26.2014 25.1953 26.2539 24.7057 26.4529 24.2608C26.6518 23.8159 26.9883 23.4357 27.4198 23.1682C27.8513 22.9008 28.3584 22.758 28.8772 22.758C29.396 22.758 29.9031 22.9008 30.3346 23.1682C30.7661 23.4357 31.1026 23.8159 31.3015 24.2608C31.5005 24.7057 31.553 25.1953 31.4524 25.6679C31.3519 26.1405 31.1028 26.5749 30.7366 26.9161C30.4924 27.1431 30.2024 27.3231 29.8832 27.4457C29.5639 27.5684 29.2218 27.6314 28.8763 27.631C28.5308 27.6306 28.1888 27.5669 27.8699 27.4435C27.551 27.3202 27.2614 27.1395 27.0178 26.912V26.9161ZM35.9866 36.6661C35.6191 37.0061 35.1514 37.2374 34.6424 37.3308C34.1335 37.4242 33.6061 37.3754 33.127 37.1907C32.6479 37.0059 32.2384 36.6935 31.9504 36.2929C31.6624 35.8922 31.5086 35.4213 31.5086 34.9395C31.5086 34.4578 31.6624 33.9869 31.9504 33.5862C32.2384 33.1855 32.6479 32.8731 33.127 32.6884C33.6061 32.5036 34.1335 32.4549 34.6424 32.5483C35.1514 32.6416 35.6191 32.8729 35.9866 33.213C36.2303 33.4396 36.4236 33.7087 36.5554 34.0047C36.6871 34.3008 36.7547 34.618 36.7543 34.9383C36.7539 35.2587 36.6855 35.5758 36.553 35.8715C36.4205 36.1673 36.2265 36.4359 35.9822 36.662L35.9866 36.6661Z" fill="#EC8FFA"/>
</svg>