<svg xmlns="http://www.w3.org/2000/svg" width="59" height="54" viewBox="0 0 59 54" fill="none">
  <path d="M38.1042 4.5C42.8561 4.5 46.7083 8.02575 46.7083 12.375C46.7083 12.8853 46.6552 13.3842 46.554 13.8675L46.5173 14.0162C50.9136 15.3556 54.0833 19.1515 54.0833 23.625C54.0833 27.8417 51.2671 31.4564 47.2622 32.9792L44.5925 47.6199C44.3948 48.7048 43.3692 49.5 42.1676 49.5H16.8325C15.6308 49.5 14.6052 48.7048 14.4076 47.6199L11.8787 33.7365C7.98693 33.5333 4.91667 30.5948 4.91667 27C4.91667 24.0583 6.9725 21.5564 9.84086 20.6317L9.83334 20.25C9.83334 12.7942 16.4371 6.75 24.5833 6.75C26.848 6.75 28.9936 7.21712 30.9111 8.05185C32.4461 5.9141 35.0947 4.5 38.1042 4.5ZM22.125 33.75H16.8642L18.9144 45H22.125V33.75ZM31.9583 33.75H27.0417V45H31.9583V33.75ZM42.1334 33.75H36.875V45H40.0831L42.1334 33.75ZM24.5833 11.25C19.3171 11.25 15.0178 15.0389 14.7613 19.7268L14.7492 20.1689L14.7567 20.5505C14.7925 22.3679 13.6323 24.0134 11.8408 24.7426L11.4743 24.876C10.5001 25.1901 9.83334 26.0375 9.83334 27C9.83334 28.2427 10.934 29.25 12.2917 29.25H43.0208C46.4151 29.25 49.1667 26.7316 49.1667 23.625C49.1667 20.5184 46.4151 18 43.0208 18C42.1956 18 41.4025 18.1467 40.6712 18.4266L40.24 18.6104C37.8635 19.731 34.9705 18.9037 33.6937 16.8011L33.5223 16.4921C31.9279 13.3224 28.4621 11.25 24.5833 11.25ZM38.1042 9C36.7609 9 35.5856 9.65725 34.9408 10.6395C36.2024 11.7776 37.2391 13.1207 37.9884 14.6101C39.0791 14.0958 40.2768 13.7445 41.5429 13.5896C41.7044 13.2134 41.7917 12.8035 41.7917 12.375C41.7917 10.511 40.1407 9 38.1042 9Z" fill="#EC8FFA"/>
</svg>