<svg width="204" height="59" viewBox="0 0 204 59" fill="none" xmlns="http://www.w3.org/2000/svg">
<path d="M27.0884 0.216467C25.6242 -0.320412 21.4951 -0.193513 16.6925 4.60911C20.4995 2.73491 22.0369 3.82819 22.3298 4.60911C25.4046 11.0516 11.4946 6.87864 4.75918 13.614C-8.19908 31.6971 8.2733 38.7253 18.8888 31.6971C29.5044 24.6688 34.7756 34.5523 39.461 35.3576C43.6341 36.0897 52.2436 34.5816 53.2979 22.6921C54.3521 10.8027 36.2642 2.75444 27.0884 0.216467Z" fill="#F0ABFC"/>
<path opacity="0.02" fill-rule="evenodd" clip-rule="evenodd" d="M53.342 21.6826C51.9494 11.9909 36.6859 5.44456 28.654 3.27161C27.6442 2.90945 25.292 2.87432 22.3302 4.60993C22.6758 5.33437 22.8066 5.92456 22.757 6.41111C23.5949 6.53992 24.0231 6.96995 24.1606 7.32863C25.6812 10.445 22.8027 10.872 18.8023 11.4656C15.1643 12.0053 10.5984 12.6827 7.5693 15.6455C-0.119426 26.1401 3.16475 32.6033 9.15467 34.3472C12.3271 34.57 15.8482 33.7102 18.8888 31.6971C24.7898 27.7902 29.0393 29.1091 32.4548 31.1895C33.8157 31.8534 35.0377 32.7094 36.1689 33.5018C37.1064 34.1585 37.9815 34.7715 38.8214 35.195C39.0361 35.2662 39.2491 35.3212 39.461 35.3576C43.634 36.0897 52.2436 34.5816 53.2979 22.6921C53.328 22.3525 53.3425 22.016 53.342 21.6826Z" fill="black"/>
<path fill-rule="evenodd" clip-rule="evenodd" d="M26.1177 53.8799H28.2598V33.365C27.3982 33.1785 26.4876 33.0964 25.5205 33.1587L26.1177 53.8799ZM22.7533 33.7116C21.5478 34.111 20.2631 34.7374 18.8889 35.6473C18.6769 35.7876 18.4626 35.9223 18.2463 36.0514L21.4928 53.8799H23.3345L22.7533 33.7116ZM18.6651 53.8799L15.647 37.3059C13.9953 37.9296 12.2932 38.2656 10.6473 38.3229L17.9371 53.8799H18.6651ZM31.0418 34.3585V53.8799H32.4683L35.5156 37.2326C35.361 37.1226 35.2048 37.0107 35.0469 36.8977C33.8291 36.0255 32.5118 35.0821 31.0418 34.3585ZM38.0516 38.8288L35.2965 53.8799H36.6059L42.7473 39.3772C41.5215 39.5219 40.383 39.4695 39.4611 39.3078C38.9985 39.2283 38.5302 39.0603 38.0516 38.8288Z" fill="#F0ABFC"/>
<path opacity="0.025" fill-rule="evenodd" clip-rule="evenodd" d="M28.2597 34.8335C27.5417 34.7138 26.7901 34.6684 26.0009 34.7193L26.5531 53.8799H28.2597V34.8335ZM22.8025 35.4235C21.723 35.8237 20.581 36.4056 19.3693 37.2078C19.1574 37.3482 18.9431 37.4829 18.7267 37.612L21.6891 53.8799H23.3344L22.8025 35.4235ZM15.9435 38.9347L18.665 53.8799H17.937L11.3735 39.8729C12.8815 39.7952 14.4319 39.4848 15.9435 38.9347ZM35.3185 38.3087C34.1592 37.4794 32.9086 36.6015 31.5223 35.9191V53.8799H32.4682L35.3185 38.3087ZM42.0517 41.0197C41.2768 41.0362 40.5604 40.9769 39.9415 40.8684C39.4789 40.7889 39.0106 40.6209 38.5321 40.3894L36.0626 53.8799H36.6058L42.0517 41.0197Z" fill="black"/>
<path d="M27.0884 0.216467C25.6242 -0.320412 21.4951 -0.193513 16.6925 4.60911C20.4995 2.73491 22.0369 3.82819 22.3298 4.60911C25.4046 11.0516 11.4946 6.87864 4.75918 13.614C-8.19908 31.6971 8.2733 38.7253 18.8888 31.6971C29.5044 24.6688 34.7756 34.5523 39.461 35.3576C43.6341 36.0897 52.2436 34.5816 53.2979 22.6921C54.3521 10.8027 36.2642 2.75444 27.0884 0.216467Z" fill="#F192FF"/>
<path opacity="0.02" fill-rule="evenodd" clip-rule="evenodd" d="M53.342 21.6826C51.9494 11.9909 36.6859 5.44456 28.654 3.27161C27.6442 2.90945 25.292 2.87432 22.3302 4.60993C22.6758 5.33437 22.8066 5.92456 22.757 6.41111C23.5949 6.53992 24.0231 6.96995 24.1606 7.32863C25.6812 10.445 22.8027 10.872 18.8023 11.4656C15.1643 12.0053 10.5984 12.6827 7.5693 15.6455C-0.119426 26.1401 3.16475 32.6033 9.15467 34.3472C12.3271 34.57 15.8482 33.7102 18.8888 31.6971C24.7898 27.7902 29.0393 29.1091 32.4548 31.1895C33.8157 31.8534 35.0377 32.7094 36.1689 33.5018C37.1064 34.1585 37.9815 34.7715 38.8214 35.195C39.0361 35.2662 39.2491 35.3212 39.461 35.3576C43.634 36.0897 52.2436 34.5816 53.2979 22.6921C53.328 22.3525 53.3425 22.016 53.342 21.6826Z" fill="black"/>
<path fill-rule="evenodd" clip-rule="evenodd" d="M26.1177 53.8799H28.2598V33.365C27.3982 33.1785 26.4876 33.0964 25.5205 33.1587L26.1177 53.8799ZM22.7533 33.7116C21.5478 34.111 20.2631 34.7374 18.8889 35.6473C18.6769 35.7876 18.4626 35.9223 18.2463 36.0514L21.4928 53.8799H23.3345L22.7533 33.7116ZM18.6651 53.8799L15.647 37.3059C13.9953 37.9296 12.2932 38.2656 10.6473 38.3229L17.9371 53.8799H18.6651ZM31.0418 34.3585V53.8799H32.4683L35.5156 37.2326C35.361 37.1226 35.2048 37.0107 35.0469 36.8977C33.8291 36.0255 32.5118 35.0821 31.0418 34.3585ZM38.0516 38.8288L35.2965 53.8799H36.6059L42.7473 39.3772C41.5215 39.5219 40.383 39.4695 39.4611 39.3078C38.9985 39.2283 38.5302 39.0603 38.0516 38.8288Z" fill="#F192FF"/>
<path opacity="0.025" fill-rule="evenodd" clip-rule="evenodd" d="M28.2597 34.8335C27.5417 34.7138 26.7901 34.6684 26.0009 34.7193L26.5531 53.8799H28.2597V34.8335ZM22.8025 35.4235C21.723 35.8237 20.581 36.4056 19.3693 37.2078C19.1574 37.3482 18.9431 37.4829 18.7267 37.612L21.6891 53.8799H23.3344L22.8025 35.4235ZM15.9435 38.9347L18.665 53.8799H17.937L11.3735 39.8729C12.8815 39.7952 14.4319 39.4848 15.9435 38.9347ZM35.3185 38.3087C34.1592 37.4794 32.9086 36.6015 31.5223 35.9191V53.8799H32.4682L35.3185 38.3087ZM42.0517 41.0197C41.2768 41.0362 40.5604 40.9769 39.9415 40.8684C39.4789 40.7889 39.0106 40.6209 38.5321 40.3894L36.0626 53.8799H36.6058L42.0517 41.0197Z" fill="black"/>
<path d="M64.8381 26.0717C64.5946 26.0717 64.3945 25.9934 64.2379 25.8368C64.0988 25.6803 64.0292 25.4976 64.0292 25.2889V8.66736H65.647V25.2889C65.647 25.4976 65.5687 25.6803 65.4121 25.8368C65.2556 25.9934 65.0642 26.0717 64.8381 26.0717ZM58.6279 9.2936C58.4191 9.2936 58.2365 9.22402 58.0799 9.08486C57.9233 8.94569 57.8451 8.76304 57.8451 8.53689C57.8451 8.32815 57.9233 8.15419 58.0799 8.01503C58.2365 7.87586 58.4191 7.80628 58.6279 7.80628H71.0483C71.2571 7.80628 71.4397 7.87586 71.5963 8.01503C71.7528 8.15419 71.8311 8.33685 71.8311 8.56299C71.8311 8.78913 71.7528 8.97178 71.5963 9.11095C71.4397 9.23272 71.2571 9.2936 71.0483 9.2936H58.6279ZM82.6733 12.6336C83.7693 12.6336 84.6564 12.8684 85.3349 13.3381C86.0133 13.8078 86.5091 14.4427 86.8222 15.2429C87.1527 16.0431 87.318 16.9303 87.318 17.9044V25.2889C87.318 25.4976 87.2397 25.6803 87.0831 25.8368C86.9266 25.9934 86.7439 26.0717 86.5352 26.0717C86.2916 26.0717 86.1003 25.9934 85.9611 25.8368C85.8219 25.6803 85.7524 25.4976 85.7524 25.2889V17.9044C85.7524 17.1912 85.6393 16.5476 85.4131 15.9735C85.2044 15.3995 84.8565 14.9472 84.3694 14.6167C83.8823 14.2687 83.23 14.0948 82.4124 14.0948C81.6818 14.0948 80.986 14.2687 80.3249 14.6167C79.6813 14.9472 79.1594 15.3995 78.7593 15.9735C78.3592 16.5476 78.1592 17.1912 78.1592 17.9044V25.2889C78.1592 25.4976 78.0809 25.6803 77.9243 25.8368C77.7678 25.9934 77.5851 26.0717 77.3764 26.0717C77.1328 26.0717 76.9415 25.9934 76.8023 25.8368C76.6632 25.6803 76.5936 25.4976 76.5936 25.2889V7.54535C76.5936 7.3366 76.6632 7.15395 76.8023 6.99739C76.9589 6.84083 77.1502 6.76255 77.3764 6.76255C77.6025 6.76255 77.7852 6.84083 77.9243 6.99739C78.0809 7.15395 78.1592 7.3366 78.1592 7.54535V15.9996L77.559 16.9129C77.5938 16.3736 77.7591 15.8517 78.0548 15.3473C78.3679 14.8254 78.768 14.3644 79.2551 13.9643C79.7422 13.5468 80.2814 13.225 80.8729 12.9989C81.4643 12.7553 82.0645 12.6336 82.6733 12.6336ZM99.2781 26.3326C97.9386 26.3326 96.7557 26.0456 95.7294 25.4715C94.7031 24.8975 93.9029 24.0973 93.3288 23.0709C92.7548 22.0446 92.4677 20.8443 92.4677 19.47C92.4677 17.9914 92.7548 16.7302 93.3288 15.6865C93.9203 14.6427 94.677 13.8426 95.5989 13.2859C96.5383 12.7118 97.5298 12.4248 98.5736 12.4248C99.339 12.4248 100.078 12.564 100.792 12.8423C101.522 13.1032 102.166 13.5033 102.722 14.0426C103.296 14.5645 103.749 15.2081 104.079 15.9735C104.427 16.7389 104.619 17.6261 104.653 18.635C104.636 18.8438 104.549 19.0264 104.392 19.183C104.236 19.3222 104.053 19.3917 103.844 19.3917H93.381L93.0679 17.9827H103.349L103.009 18.2958V17.774C102.94 16.9564 102.679 16.2605 102.227 15.6865C101.774 15.1124 101.226 14.6775 100.583 14.3818C99.9391 14.0861 99.2694 13.9382 98.5736 13.9382C98.0517 13.9382 97.5125 14.0426 96.9558 14.2513C96.4165 14.4601 95.9208 14.7906 95.4685 15.2429C95.0336 15.6778 94.677 16.2431 94.3986 16.939C94.1203 17.6174 93.9811 18.4263 93.9811 19.3657C93.9811 20.392 94.1899 21.3227 94.6074 22.1576C95.0249 22.9926 95.625 23.6537 96.4078 24.1407C97.208 24.6278 98.1561 24.8714 99.252 24.8714C99.8609 24.8714 100.409 24.7844 100.896 24.6104C101.383 24.4365 101.809 24.2103 102.174 23.932C102.54 23.6363 102.844 23.3318 103.088 23.0187C103.279 22.8622 103.47 22.7839 103.662 22.7839C103.836 22.7839 103.984 22.8535 104.105 22.9926C104.245 23.1318 104.314 23.2884 104.314 23.4623C104.314 23.6711 104.227 23.8537 104.053 24.0103C103.531 24.6365 102.853 25.1845 102.018 25.6542C101.183 26.1064 100.27 26.3326 99.2781 26.3326ZM72.0399 35.85C72.4226 36.0414 72.64 36.3371 72.6922 36.7372C72.7618 37.1373 72.6661 37.5026 72.4052 37.8331C72.2138 38.094 71.9616 38.2419 71.6485 38.2767C71.3527 38.3115 71.057 38.2506 70.7613 38.094C70.2568 37.8331 69.7263 37.6244 69.1696 37.4678C68.6129 37.3112 68.0215 37.233 67.3952 37.233C66.4037 37.233 65.5078 37.3982 64.7076 37.7287C63.9248 38.0419 63.2464 38.5028 62.6723 39.1117C62.0983 39.7031 61.6547 40.4077 61.3416 41.2253C61.0459 42.0428 60.898 42.9474 60.898 43.939C60.898 45.0349 61.0632 46.009 61.3938 46.8614C61.7243 47.6964 62.1766 48.4096 62.7506 49.0011C63.3421 49.5751 64.0292 50.01 64.812 50.3058C65.6122 50.5841 66.4733 50.7232 67.3952 50.7232C67.9867 50.7232 68.5607 50.6537 69.1174 50.5145C69.6915 50.3753 70.2307 50.1666 70.7352 49.8883C71.0483 49.7317 71.3527 49.6795 71.6485 49.7317C71.9616 49.7665 72.2138 49.9144 72.4052 50.1753C72.7009 50.5406 72.8053 50.9146 72.7183 51.2973C72.6487 51.6626 72.4313 51.9409 72.066 52.1323C71.6311 52.3758 71.1527 52.5846 70.6308 52.7585C70.109 52.9325 69.5784 53.0717 69.0391 53.176C68.4999 53.2804 67.9519 53.3326 67.3952 53.3326C66.1428 53.3326 64.9599 53.1238 63.8465 52.7063C62.7332 52.2889 61.7417 51.68 60.8719 50.8798C60.0021 50.0796 59.315 49.0968 58.8105 47.9313C58.3234 46.7658 58.0799 45.435 58.0799 43.939C58.0799 42.5995 58.306 41.3644 58.7583 40.2337C59.228 39.0856 59.8803 38.1027 60.7153 37.2852C61.5677 36.4502 62.5593 35.8065 63.69 35.3542C64.8207 34.8846 66.0558 34.6497 67.3952 34.6497C68.2302 34.6497 69.0391 34.7541 69.8219 34.9628C70.6221 35.1716 71.3614 35.4673 72.0399 35.85ZM88.4459 39.1378C88.8286 39.1378 89.1417 39.2683 89.3852 39.5292C89.6288 39.7727 89.7506 40.0858 89.7506 40.4685V51.7409C89.7506 52.1236 89.6288 52.4454 89.3852 52.7063C89.1417 52.9499 88.8286 53.0717 88.4459 53.0717C88.0806 53.0717 87.7675 52.9499 87.5065 52.7063C87.263 52.4454 87.1412 52.1236 87.1412 51.7409V49.8622L87.6892 49.9404C87.6892 50.2536 87.5587 50.6015 87.2978 50.9842C87.0542 51.3669 86.715 51.7409 86.2801 52.1062C85.8452 52.4541 85.3321 52.7498 84.7406 52.9934C84.1492 53.2195 83.5142 53.3326 82.8358 53.3326C81.6355 53.3326 80.557 53.0282 79.6002 52.4193C78.6435 51.7931 77.8868 50.9407 77.3301 49.8622C76.7734 48.7836 76.4951 47.5573 76.4951 46.183C76.4951 44.774 76.7734 43.5389 77.3301 42.4777C77.8868 41.3992 78.6348 40.5555 79.5741 39.9467C80.5309 39.3378 81.592 39.0334 82.7575 39.0334C83.5055 39.0334 84.1927 39.1552 84.8189 39.3987C85.4625 39.6423 86.0192 39.9554 86.4889 40.3381C86.9586 40.7208 87.3152 41.1296 87.5587 41.5645C87.8196 41.982 87.9501 42.3821 87.9501 42.7648L87.1412 42.843V40.4685C87.1412 40.1032 87.263 39.7901 87.5065 39.5292C87.7675 39.2683 88.0806 39.1378 88.4459 39.1378ZM83.1228 50.932C83.9404 50.932 84.6623 50.7232 85.2886 50.3058C85.9148 49.8883 86.4019 49.3229 86.7498 48.6097C87.0977 47.8791 87.2717 47.0702 87.2717 46.183C87.2717 45.2784 87.0977 44.4695 86.7498 43.7563C86.4019 43.0431 85.9148 42.4777 85.2886 42.0602C84.6623 41.6427 83.9404 41.434 83.1228 41.434C82.3226 41.434 81.6094 41.6427 80.9832 42.0602C80.3743 42.4777 79.8872 43.0431 79.5219 43.7563C79.174 44.4695 79.0001 45.2784 79.0001 46.183C79.0001 47.0702 79.174 47.8791 79.5219 48.6097C79.8872 49.3229 80.3743 49.8883 80.9832 50.3058C81.6094 50.7232 82.3226 50.932 83.1228 50.932ZM96.746 53.0717C96.3807 53.0717 96.0676 52.9499 95.8067 52.7063C95.5631 52.4454 95.4414 52.1236 95.4414 51.7409V35.0933C95.4414 34.7106 95.5631 34.3975 95.8067 34.1539C96.0676 33.893 96.3807 33.7625 96.746 33.7625C97.1287 33.7625 97.4418 33.893 97.6854 34.1539C97.9289 34.3975 98.0507 34.7106 98.0507 35.0933V51.7409C98.0507 52.1236 97.9289 52.4454 97.6854 52.7063C97.4418 52.9499 97.1287 53.0717 96.746 53.0717ZM105.252 39.2943C105.583 39.2943 105.87 39.4335 106.114 39.7118C106.357 39.9902 106.479 40.2685 106.479 40.5468C106.479 40.8947 106.314 41.2166 105.983 41.5123L97.8159 48.8184L97.7115 45.8177L104.287 39.7118C104.565 39.4335 104.887 39.2943 105.252 39.2943ZM105.566 53.0456C105.2 53.0456 104.887 52.8977 104.626 52.602L99.4076 47.0963L101.391 45.2697L106.479 50.7754C106.757 51.0712 106.896 51.4017 106.896 51.767C106.896 52.1497 106.74 52.4628 106.427 52.7063C106.131 52.9325 105.844 53.0456 105.566 53.0456ZM117.416 53.3326C115.972 53.3326 114.72 53.0369 113.659 52.4454C112.597 51.8366 111.771 51.0103 111.18 49.9665C110.606 48.9054 110.319 47.6964 110.319 46.3396C110.319 44.8087 110.623 43.5041 111.232 42.4256C111.858 41.3296 112.667 40.4946 113.659 39.9206C114.65 39.3291 115.703 39.0334 116.816 39.0334C117.668 39.0334 118.477 39.2074 119.243 39.5553C120.008 39.8858 120.686 40.3555 121.278 40.9643C121.887 41.5558 122.365 42.2603 122.713 43.0779C123.061 43.8781 123.244 44.7566 123.261 45.7133C123.244 46.0612 123.104 46.3483 122.843 46.5744C122.583 46.8005 122.278 46.9136 121.93 46.9136H111.78L111.154 44.6957H120.965L120.469 45.1654V44.513C120.434 43.9042 120.234 43.3736 119.869 42.9213C119.504 42.4516 119.051 42.095 118.512 41.8515C117.973 41.5906 117.407 41.4601 116.816 41.4601C116.294 41.4601 115.79 41.5471 115.303 41.721C114.833 41.8776 114.407 42.1385 114.024 42.5038C113.659 42.8691 113.363 43.3562 113.137 43.9651C112.928 44.5565 112.824 45.2958 112.824 46.183C112.824 47.1398 113.024 47.9747 113.424 48.688C113.824 49.4012 114.363 49.9578 115.042 50.3579C115.72 50.7406 116.468 50.932 117.286 50.932C117.929 50.932 118.46 50.8711 118.877 50.7493C119.295 50.6102 119.643 50.4449 119.921 50.2536C120.199 50.0622 120.443 49.8796 120.652 49.7056C120.913 49.549 121.174 49.4708 121.434 49.4708C121.748 49.4708 122.009 49.5838 122.217 49.81C122.426 50.0187 122.53 50.271 122.53 50.5667C122.53 50.9494 122.339 51.2973 121.956 51.6104C121.487 52.0627 120.834 52.4628 119.999 52.8107C119.182 53.1586 118.321 53.3326 117.416 53.3326ZM143.023 53.3326C141.77 53.3326 140.657 53.1586 139.683 52.8107C138.709 52.4628 137.778 51.8888 136.891 51.0886C136.7 50.9494 136.552 50.7841 136.447 50.5928C136.36 50.384 136.317 50.1753 136.317 49.9665C136.317 49.636 136.439 49.3403 136.682 49.0794C136.926 48.8184 137.23 48.688 137.595 48.688C137.874 48.688 138.135 48.7836 138.378 48.975C139.039 49.5838 139.726 50.0448 140.44 50.3579C141.17 50.6711 142.023 50.8276 142.997 50.8276C143.693 50.8276 144.328 50.7146 144.902 50.4884C145.493 50.2623 145.963 49.9578 146.311 49.5751C146.659 49.1924 146.832 48.7489 146.832 48.2444C146.832 47.6181 146.65 47.105 146.285 46.7049C145.937 46.2874 145.423 45.9482 144.745 45.6872C144.084 45.4089 143.284 45.1741 142.344 44.9827C141.475 44.8261 140.692 44.6087 139.996 44.3304C139.318 44.052 138.735 43.7041 138.248 43.2866C137.761 42.8517 137.387 42.3386 137.126 41.7471C136.865 41.1557 136.734 40.4685 136.734 39.6857C136.734 38.6246 137.013 37.7113 137.569 36.9459C138.126 36.1805 138.883 35.5891 139.839 35.1716C140.796 34.7541 141.875 34.5453 143.075 34.5453C144.171 34.5453 145.197 34.7193 146.154 35.0672C147.111 35.3977 147.885 35.85 148.476 36.4241C148.894 36.7894 149.103 37.1808 149.103 37.5983C149.103 37.9114 148.972 38.2071 148.711 38.4854C148.468 38.7464 148.181 38.8768 147.85 38.8768C147.607 38.8768 147.398 38.8073 147.224 38.6681C146.946 38.3724 146.572 38.1114 146.102 37.8853C145.632 37.6418 145.128 37.4417 144.588 37.2852C144.067 37.1286 143.562 37.0503 143.075 37.0503C142.292 37.0503 141.623 37.1634 141.066 37.3895C140.509 37.5983 140.083 37.894 139.787 38.2767C139.492 38.642 139.344 39.0769 139.344 39.5814C139.344 40.1728 139.509 40.6599 139.839 41.0426C140.187 41.4253 140.666 41.7384 141.275 41.982C141.883 42.2081 142.579 42.4169 143.362 42.6082C144.319 42.817 145.171 43.0518 145.919 43.3127C146.685 43.5737 147.328 43.9129 147.85 44.3304C148.372 44.7305 148.772 45.2349 149.05 45.8438C149.329 46.4526 149.468 47.2093 149.468 48.1139C149.468 49.1576 149.172 50.0709 148.581 50.8537C147.989 51.6365 147.207 52.2454 146.232 52.6803C145.276 53.1151 144.206 53.3326 143.023 53.3326ZM161.131 39.1117C162.331 39.1117 163.262 39.3726 163.923 39.8945C164.584 40.399 165.045 41.0861 165.306 41.9559C165.584 42.8256 165.723 43.7824 165.723 44.8261V51.7409C165.723 52.1236 165.593 52.4454 165.332 52.7063C165.088 52.9499 164.784 53.0717 164.418 53.0717C164.036 53.0717 163.723 52.9499 163.479 52.7063C163.236 52.4454 163.114 52.1236 163.114 51.7409V44.8261C163.114 44.2173 163.027 43.6606 162.853 43.1562C162.696 42.6517 162.409 42.2516 161.992 41.9559C161.592 41.6601 161.026 41.5123 160.296 41.5123C159.617 41.5123 159.008 41.6601 158.469 41.9559C157.947 42.2516 157.538 42.6517 157.243 43.1562C156.964 43.6606 156.825 44.2173 156.825 44.8261V51.7409C156.825 52.1236 156.695 52.4454 156.434 52.7063C156.19 52.9499 155.886 53.0717 155.521 53.0717C155.138 53.0717 154.825 52.9499 154.581 52.7063C154.338 52.4454 154.216 52.1236 154.216 51.7409V35.0933C154.216 34.7106 154.338 34.3975 154.581 34.1539C154.825 33.893 155.138 33.7625 155.521 33.7625C155.886 33.7625 156.19 33.893 156.434 34.1539C156.695 34.3975 156.825 34.7106 156.825 35.0933V42.2168L156.356 42.4777C156.477 42.095 156.677 41.7036 156.956 41.3035C157.251 40.9034 157.608 40.5381 158.026 40.2076C158.46 39.8771 158.939 39.6162 159.461 39.4248C159.983 39.2161 160.539 39.1117 161.131 39.1117ZM184.33 46.2091C184.33 47.6007 184.025 48.8358 183.416 49.9144C182.808 50.9755 181.981 51.8105 180.938 52.4193C179.894 53.0282 178.72 53.3326 177.415 53.3326C176.11 53.3326 174.936 53.0282 173.892 52.4193C172.849 51.8105 172.014 50.9755 171.387 49.9144C170.779 48.8358 170.474 47.6007 170.474 46.2091C170.474 44.8 170.779 43.565 171.387 42.5038C172.014 41.4253 172.849 40.5816 173.892 39.9728C174.936 39.3465 176.11 39.0334 177.415 39.0334C178.72 39.0334 179.894 39.3465 180.938 39.9728C181.981 40.5816 182.808 41.4253 183.416 42.5038C184.025 43.565 184.33 44.8 184.33 46.2091ZM181.72 46.2091C181.72 45.2523 181.529 44.426 181.146 43.7302C180.764 43.017 180.242 42.4603 179.581 42.0602C178.937 41.6427 178.215 41.434 177.415 41.434C176.615 41.434 175.884 41.6427 175.223 42.0602C174.562 42.4603 174.04 43.017 173.658 43.7302C173.275 44.426 173.083 45.2523 173.083 46.2091C173.083 47.1311 173.275 47.9487 173.658 48.6619C174.04 49.3751 174.562 49.9318 175.223 50.3318C175.884 50.7319 176.615 50.932 177.415 50.932C178.215 50.932 178.937 50.7319 179.581 50.3318C180.242 49.9318 180.764 49.3751 181.146 48.6619C181.529 47.9487 181.72 47.1311 181.72 46.2091ZM196.024 39.1117C197.242 39.1117 198.321 39.4161 199.26 40.025C200.217 40.6338 200.973 41.4688 201.53 42.5299C202.087 43.5737 202.365 44.7914 202.365 46.183C202.365 47.5746 202.087 48.8097 201.53 49.8883C200.973 50.9494 200.225 51.7844 199.286 52.3932C198.347 53.0021 197.286 53.3065 196.103 53.3065C195.442 53.3065 194.815 53.2021 194.224 52.9934C193.633 52.7846 193.111 52.515 192.658 52.1845C192.206 51.8366 191.832 51.4713 191.536 51.0886C191.258 50.7059 191.084 50.3492 191.015 50.0187L191.719 49.6795V56.9596C191.719 57.3423 191.589 57.6554 191.328 57.8989C191.084 58.1599 190.78 58.2903 190.414 58.2903C190.032 58.2903 189.719 58.1599 189.475 57.8989C189.231 57.6554 189.11 57.3423 189.11 56.9596V40.6251C189.11 40.2598 189.231 39.9467 189.475 39.6857C189.719 39.4248 190.032 39.2943 190.414 39.2943C190.78 39.2943 191.084 39.4248 191.328 39.6857C191.589 39.9467 191.719 40.2598 191.719 40.6251V42.4256L191.302 42.1907C191.354 41.8602 191.519 41.521 191.797 41.1731C192.076 40.8078 192.424 40.4685 192.841 40.1554C193.276 39.8423 193.763 39.5901 194.302 39.3987C194.859 39.2074 195.433 39.1117 196.024 39.1117ZM195.737 41.5123C194.902 41.5123 194.172 41.721 193.546 42.1385C192.937 42.5386 192.458 43.0866 192.11 43.7824C191.763 44.4782 191.589 45.2784 191.589 46.183C191.589 47.0702 191.763 47.8791 192.11 48.6097C192.458 49.3229 192.937 49.8883 193.546 50.3058C194.172 50.7059 194.902 50.9059 195.737 50.9059C196.555 50.9059 197.268 50.7059 197.877 50.3058C198.486 49.8883 198.964 49.3229 199.312 48.6097C199.678 47.8791 199.86 47.0702 199.86 46.183C199.86 45.2958 199.678 44.5043 199.312 43.8085C198.964 43.0953 198.486 42.5386 197.877 42.1385C197.268 41.721 196.555 41.5123 195.737 41.5123Z" fill="#C026D3"/>
</svg>
