<svg xmlns="http://www.w3.org/2000/svg" width="56" height="52" viewBox="0 0 56 52" fill="none">
  <g clip-path="url(#clip0_1_155)">
    <path d="M11.1956 29.5567C8.46786 26.1893 6.99509 22.0887 7 17.875C7 17.5886 7 17.3042 7.01969 17.0198C7.03146 16.8118 7.12883 16.616 7.29166 16.4727C7.4545 16.3294 7.67037 16.2497 7.89469 16.25H23.4062C23.5794 16.2499 23.7487 16.2975 23.8927 16.3867C24.0368 16.476 24.149 16.6029 24.2153 16.7515C24.2816 16.9 24.2989 17.0635 24.2651 17.2212C24.2313 17.3789 24.1478 17.5237 24.0253 17.6373L11.1956 29.5567ZM26.25 37.3059V20.1723L13.5253 31.9902C16.9872 35.0614 21.4785 36.9377 26.25 37.3059ZM44.8044 29.5567C47.5321 26.1893 49.0049 22.0887 49 17.875C49 17.5886 49 17.3042 48.9803 17.0198C48.9685 16.8118 48.8712 16.616 48.7083 16.4727C48.5455 16.3294 48.3296 16.2497 48.1053 16.25H32.5938C32.4206 16.2499 32.2513 16.2975 32.1073 16.3867C31.9632 16.476 31.851 16.6029 31.7847 16.7515C31.7184 16.9 31.7011 17.0635 31.7349 17.2212C31.7687 17.3789 31.8522 17.5237 31.9747 17.6373L44.8044 29.5567ZM54.25 16.25H53.3575C53.24 16.2499 53.1236 16.2719 53.0154 16.3145C52.9072 16.3571 52.8094 16.4195 52.7277 16.4979C52.646 16.5764 52.5822 16.6694 52.5401 16.7713C52.498 16.8732 52.4784 16.9819 52.4825 17.0909C52.4825 17.3509 52.4978 17.613 52.4978 17.875C52.4368 23.8712 49.8288 29.6025 45.241 33.8225C40.6532 38.0426 34.4566 40.41 27.9989 40.41C21.5412 40.41 15.3446 38.0426 10.7568 33.8225C6.16902 29.6025 3.56102 23.8712 3.5 17.875C3.5 17.613 3.5 17.3509 3.51531 17.0909C3.51943 16.9819 3.49983 16.8732 3.45771 16.7713C3.41558 16.6694 3.35178 16.5764 3.27012 16.4979C3.18845 16.4195 3.0906 16.3571 2.98239 16.3145C2.87418 16.2719 2.75784 16.2499 2.64031 16.25H1.75C1.28587 16.25 0.840752 16.4212 0.512563 16.726C0.184374 17.0307 0 17.444 0 17.875C0 24.7706 2.94999 31.3838 8.20101 36.2598C13.452 41.1357 20.5739 43.875 28 43.875C35.4261 43.875 42.548 41.1357 47.799 36.2598C53.05 31.3838 56 24.7706 56 17.875C56 17.444 55.8156 17.0307 55.4874 16.726C55.1592 16.4212 54.7141 16.25 54.25 16.25ZM29.75 20.1723V37.3059C34.5215 36.9377 39.0128 35.0614 42.4747 31.9902L29.75 20.1723Z" fill="#EC8FFA"/>
  </g>
  <defs>
    <clipPath id="clip0_1_155">
      <rect width="56" height="52" fill="white"/>
    </clipPath>
  </defs>
</svg>