<svg xmlns="http://www.w3.org/2000/svg" width="54" height="50" viewBox="0 0 54 50" fill="none">
  <path d="M43.2958 9.91117C46.5863 12.9642 47.8231 17.1876 47.0079 21.1183C48.2882 21.4525 49.4971 22.0838 50.506 23.011C53.6647 25.9146 53.6647 30.6223 50.506 33.5258L38.25 44.7917L31.4505 38.5417L24.7498 44.7604L5.67311 27.0688C0.938359 22.1604 1.11534 14.6229 6.20406 9.91117C11.2985 5.19406 19.4517 5.03515 24.7523 9.43444C30.0375 5.04167 38.205 5.1875 43.2958 9.91117ZM29.1645 25.9679C27.7785 27.2419 27.7785 29.2948 29.1645 30.5688L38.25 38.9204L47.3355 30.5688C48.7215 29.2948 48.7215 27.2419 47.3355 25.9679C45.9315 24.6773 43.6415 24.6773 42.2325 25.9725L38.2453 29.6263L35.0798 26.7188L34.2626 25.9679C32.8586 24.6773 30.5685 24.6773 29.1645 25.9679ZM9.38603 12.8574C6.03412 15.9611 5.86584 20.9319 8.95484 24.215L24.7498 38.8631L28.2578 35.6083L25.994 33.5258C22.8353 30.6223 22.8353 25.9146 25.994 23.011C29.1528 20.1074 34.2743 20.1074 37.433 23.011L38.2491 23.7606L39.067 23.011C40.0223 22.1329 41.1572 21.5202 42.363 21.1733C43.2981 18.3245 42.538 15.1067 40.1107 12.8544C36.7378 9.72488 31.2921 9.59794 27.7583 12.5351L24.7543 15.0318L21.7486 12.5371C18.2047 9.59577 12.7689 9.72517 9.38603 12.8574Z" fill="#EC8FFA"/>
</svg>